<svg xmlns="http://www.w3.org/2000/svg" xmlns:xlink="http://www.w3.org/1999/xlink" width="500" zoomAndPan="magnify" viewBox="0 0 375 374.999991" height="500" preserveAspectRatio="xMidYMid meet" version="1.0"><defs><clipPath id="4b3db52a88"><path d="M 54.546875 0 L 337.296875 0 L 337.296875 375 L 54.546875 375 Z M 54.546875 0 " clip-rule="nonzero"/></clipPath></defs><g clip-path="url(#4b3db52a88)"><path fill="#ffffff" d="M 293.90625 145.734375 L 291.300781 145.734375 L 291.300781 95.261719 C 291.300781 42.738281 248.5625 0 196.019531 0 C 143.476562 0 100.738281 42.738281 100.738281 95.269531 L 100.738281 145.746094 L 98.132812 145.746094 C 74.125 145.746094 54.582031 165.277344 54.582031 189.300781 L 54.582031 331.457031 C 54.582031 355.480469 74.125 375.011719 98.132812 375.011719 L 293.894531 375.011719 C 317.90625 375.011719 337.449219 355.480469 337.449219 331.457031 L 337.449219 189.289062 C 337.460938 165.269531 317.917969 145.734375 293.90625 145.734375 Z M 109.148438 95.269531 C 109.148438 47.367188 148.117188 8.398438 196.019531 8.398438 C 243.921875 8.398438 282.890625 47.367188 282.890625 95.269531 L 282.890625 145.746094 L 250.824219 145.746094 L 250.824219 95.722656 C 250.824219 65.507812 226.234375 40.917969 196.019531 40.917969 C 165.804688 40.917969 141.214844 65.507812 141.214844 95.722656 L 141.214844 145.746094 L 109.148438 145.746094 Z M 242.421875 145.734375 L 149.617188 145.734375 L 149.617188 95.710938 C 149.617188 70.125 170.433594 49.296875 196.019531 49.296875 C 221.605469 49.296875 242.421875 70.113281 242.421875 95.710938 Z M 329.039062 331.445312 C 329.039062 350.816406 313.277344 366.601562 293.894531 366.601562 L 98.132812 366.601562 C 78.761719 366.601562 62.992188 350.816406 62.992188 331.445312 L 62.992188 189.289062 C 62.992188 169.917969 78.753906 154.136719 98.132812 154.136719 L 293.894531 154.136719 C 313.265625 154.136719 329.039062 169.917969 329.039062 189.289062 Z M 329.039062 331.445312 " fill-opacity="1" fill-rule="nonzero"/></g><path fill="#ffffff" d="M 220.953125 270.472656 C 220.953125 270.460938 220.953125 270.460938 220.953125 270.460938 C 228.539062 261.910156 231.171875 250.070312 227.992188 238.777344 C 224.722656 227.164062 215.679688 218.636719 203.820312 215.945312 C 193.664062 213.644531 183.25 215.957031 175.265625 222.300781 C 167.285156 228.664062 162.710938 238.167969 162.710938 248.367188 C 162.710938 258.214844 167.027344 267.515625 174.558594 273.878906 C 176.101562 275.175781 176.648438 277.050781 175.972656 278.644531 L 167.5625 298.53125 C 166.136719 301.894531 166.492188 305.730469 168.503906 308.785156 C 170.53125 311.828125 173.917969 313.648438 177.582031 313.648438 L 214.46875 313.648438 C 218.132812 313.648438 221.519531 311.839844 223.535156 308.785156 C 225.558594 305.722656 225.914062 301.894531 224.488281 298.511719 L 216.171875 278.871094 C 215.421875 277.136719 216.003906 275.101562 217.621094 273.738281 C 218.796875 272.722656 219.914062 271.628906 220.953125 270.472656 Z M 208.425781 282.160156 L 216.753906 301.777344 C 217.210938 302.902344 216.753906 303.792969 216.539062 304.136719 C 216.3125 304.457031 215.671875 305.238281 214.46875 305.238281 L 177.582031 305.238281 C 176.378906 305.238281 175.738281 304.457031 175.511719 304.136719 C 175.296875 303.792969 174.839844 302.902344 175.308594 301.800781 L 183.710938 281.9375 C 185.832031 276.941406 184.332031 271.125 179.992188 267.449219 C 174.355469 262.683594 171.121094 255.730469 171.121094 248.367188 C 171.121094 240.738281 174.539062 233.636719 180.515625 228.878906 C 184.964844 225.320312 190.425781 223.46875 196.085938 223.46875 C 198.035156 223.46875 199.996094 223.683594 201.957031 224.144531 C 210.773438 226.144531 217.492188 232.46875 219.914062 241.0625 C 222.34375 249.707031 220.4375 258.394531 214.671875 264.898438 C 213.902344 265.757812 213.078125 266.570312 212.1875 267.332031 C 207.773438 271.070312 206.261719 277.039062 208.425781 282.160156 Z M 208.425781 282.160156 " fill-opacity="1" fill-rule="nonzero"/></svg>