<svg xmlns="http://www.w3.org/2000/svg" xmlns:xlink="http://www.w3.org/1999/xlink" width="500" zoomAndPan="magnify" viewBox="0 0 375 374.999991" height="500" preserveAspectRatio="xMidYMid meet" version="1.0"><defs><clipPath id="6720d223a5"><path d="M 18.28125 0 L 356.53125 0 L 356.53125 375 L 18.28125 375 Z M 18.28125 0 " clip-rule="nonzero"/></clipPath></defs><g clip-path="url(#6720d223a5)"><path fill="#ffffff" d="M 226.582031 210.214844 C 266.859375 194.195312 295.40625 154.855469 295.40625 108.941406 C 295.40625 48.859375 246.53125 -0.0195312 186.441406 -0.0195312 C 126.359375 -0.0195312 77.480469 48.859375 77.480469 108.941406 C 77.480469 155.144531 106.394531 194.691406 147.0625 210.515625 C 73.449219 228.746094 18.683594 295.5625 18.683594 375.015625 L 31.019531 375.015625 C 31.019531 288.386719 101.203125 217.90625 187.46875 217.90625 C 273.734375 217.90625 343.917969 288.386719 343.917969 375.015625 L 356.253906 375.015625 C 356.257812 295.105469 300.855469 227.972656 226.582031 210.214844 Z M 186.449219 205.570312 C 133.167969 205.570312 89.820312 162.222656 89.820312 108.941406 C 89.820312 55.660156 133.167969 12.316406 186.449219 12.316406 C 239.730469 12.316406 283.074219 55.660156 283.074219 108.941406 C 283.074219 162.222656 239.730469 205.570312 186.449219 205.570312 Z M 186.449219 205.570312 " fill-opacity="1" fill-rule="nonzero"/></g></svg>